<?xml version="1.0" ?><svg fill="none" height="24" viewBox="0 0 24 24" width="24" xmlns="http://www.w3.org/2000/svg"><path clip-rule="evenodd" d="M10 10C7.23858 10 5 12.2386 5 15C5 17.7614 7.23858 20 10 20C12.7614 20 15 17.7614 15 15C15 12.2386 12.7614 10 10 10ZM3 15C3 11.134 6.13401 8 10 8C13.866 8 17 11.134 17 15C17 18.866 13.866 22 10 22C6.13401 22 3 18.866 3 15Z" fill="black" fill-rule="evenodd"/><path clip-rule="evenodd" d="M21.7071 4.70711L14.7071 11.7071L13.2929 10.2929L20.2929 3.29289L21.7071 4.70711Z" fill="black" fill-rule="evenodd"/><path clip-rule="evenodd" d="M16 4C16 3.44772 16.4477 3 17 3H21C21.5523 3 22 3.44772 22 4V8C22 8.55228 21.5523 9 21 9C20.4477 9 20 8.55228 20 8V5H17C16.4477 5 16 4.55228 16 4Z" fill="black" fill-rule="evenodd"/></svg>